<svg width="800" height="450" xmlns="http://www.w3.org/2000/svg">
  <defs>
    <linearGradient id="grad3" x1="0%" y1="0%" x2="100%" y2="100%">
      <stop offset="0%" style="stop-color:#56CCF2;stop-opacity:1" />
      <stop offset="100%" style="stop-color:#2F80ED;stop-opacity:1" />
    </linearGradient>
  </defs>
  <rect width="800" height="450" fill="url(#grad3)"/>
  <!-- Sun Icon -->
  <circle cx="400" cy="160" r="35" fill="white"/>
  <circle cx="400" cy="160" r="45" fill="white" opacity="0.3"/>
  <!-- Sun rays -->
  <rect x="398" y="95" width="4" height="20" rx="2" fill="white"/>
  <rect x="398" y="210" width="4" height="20" rx="2" fill="white"/>
  <rect x="335" y="158" width="20" height="4" ry="2" fill="white"/>
  <rect x="445" y="158" width="20" height="4" ry="2" fill="white"/>
  <rect x="356" y="115" width="4" height="20" rx="2" fill="white" transform="rotate(45 358 125)"/>
  <rect x="440" y="115" width="4" height="20" rx="2" fill="white" transform="rotate(-45 442 125)"/>
  <rect x="356" y="195" width="4" height="20" rx="2" fill="white" transform="rotate(-45 358 205)"/>
  <rect x="440" y="195" width="4" height="20" rx="2" fill="white" transform="rotate(45 442 205)"/>
  <text x="400" y="280" font-family="Arial, sans-serif" font-size="48" font-weight="bold" fill="white" text-anchor="middle">Weather Dashboard</text>
  <text x="400" y="340" font-family="Arial, sans-serif" font-size="24" fill="rgba(255,255,255,0.85)" text-anchor="middle">Real-Time Weather Forecasts</text>
</svg>
